<mxfile host="65bd71144e">
    <diagram id="rqhc_ehKTWUuCpzf5ikG" name="Page-1">
        <mxGraphModel dx="1249" dy="976" grid="1" gridSize="10" guides="1" tooltips="1" connect="1" arrows="1" fold="1" page="1" pageScale="1" pageWidth="850" pageHeight="1100" math="0" shadow="0">
            <root>
                <mxCell id="0"/>
                <mxCell id="1" parent="0"/>
                <mxCell id="101" value="Users" style="shape=table;startSize=40;container=1;collapsible=0;childLayout=tableLayout;fontStyle=1;align=center;fillColor=none;" parent="1" vertex="1">
                    <mxGeometry x="40" y="40" width="300" height="344" as="geometry"/>
                </mxCell>
                <mxCell id="102" value="" style="shape=tableRow;horizontal=0;startSize=0;swimlaneHead=0;swimlaneBody=0;top=0;left=0;bottom=0;right=0;collapsible=0;dropTarget=0;fillColor=none;points=[[0,0.5],[1,0.5]];portConstraint=eastwest;" parent="101" vertex="1">
                    <mxGeometry y="40" width="300" height="38" as="geometry"/>
                </mxCell>
                <mxCell id="103" value="PK" style="shape=partialRectangle;html=1;whiteSpace=wrap;connectable=0;fillColor=none;top=0;left=0;bottom=0;right=0;overflow=hidden;" parent="102" vertex="1">
                    <mxGeometry width="100" height="38" as="geometry">
                        <mxRectangle width="100" height="38" as="alternateBounds"/>
                    </mxGeometry>
                </mxCell>
                <mxCell id="104" value="Attr" style="shape=partialRectangle;html=1;whiteSpace=wrap;connectable=0;fillColor=none;top=0;left=0;bottom=0;right=0;overflow=hidden;" parent="102" vertex="1">
                    <mxGeometry x="100" width="100" height="38" as="geometry">
                        <mxRectangle width="100" height="38" as="alternateBounds"/>
                    </mxGeometry>
                </mxCell>
                <mxCell id="105" value="Data Type" style="shape=partialRectangle;html=1;whiteSpace=wrap;connectable=0;fillColor=none;top=0;left=0;bottom=0;right=0;overflow=hidden;" parent="102" vertex="1">
                    <mxGeometry x="200" width="100" height="38" as="geometry">
                        <mxRectangle width="100" height="38" as="alternateBounds"/>
                    </mxGeometry>
                </mxCell>
                <mxCell id="106" value="" style="shape=tableRow;horizontal=0;startSize=0;swimlaneHead=0;swimlaneBody=0;top=0;left=0;bottom=0;right=0;collapsible=0;dropTarget=0;fillColor=none;points=[[0,0.5],[1,0.5]];portConstraint=eastwest;" parent="101" vertex="1">
                    <mxGeometry y="78" width="300" height="38" as="geometry"/>
                </mxCell>
                <mxCell id="107" value="1" style="shape=partialRectangle;html=1;whiteSpace=wrap;connectable=0;fillColor=none;top=0;left=0;bottom=0;right=0;overflow=hidden;" parent="106" vertex="1">
                    <mxGeometry width="100" height="38" as="geometry">
                        <mxRectangle width="100" height="38" as="alternateBounds"/>
                    </mxGeometry>
                </mxCell>
                <mxCell id="108" value="user_email" style="shape=partialRectangle;html=1;whiteSpace=wrap;connectable=0;fillColor=none;top=0;left=0;bottom=0;right=0;overflow=hidden;" parent="106" vertex="1">
                    <mxGeometry x="100" width="100" height="38" as="geometry">
                        <mxRectangle width="100" height="38" as="alternateBounds"/>
                    </mxGeometry>
                </mxCell>
                <mxCell id="109" value="&lt;font style=&quot;font-size: 12px;&quot;&gt;VARCHAR(100)&lt;/font&gt;" style="shape=partialRectangle;html=1;whiteSpace=wrap;connectable=0;fillColor=none;top=0;left=0;bottom=0;right=0;overflow=hidden;" parent="106" vertex="1">
                    <mxGeometry x="200" width="100" height="38" as="geometry">
                        <mxRectangle width="100" height="38" as="alternateBounds"/>
                    </mxGeometry>
                </mxCell>
                <mxCell id="110" value="" style="shape=tableRow;horizontal=0;startSize=0;swimlaneHead=0;swimlaneBody=0;top=0;left=0;bottom=0;right=0;collapsible=0;dropTarget=0;fillColor=none;points=[[0,0.5],[1,0.5]];portConstraint=eastwest;" parent="101" vertex="1">
                    <mxGeometry y="116" width="300" height="38" as="geometry"/>
                </mxCell>
                <mxCell id="111" value="2" style="shape=partialRectangle;html=1;whiteSpace=wrap;connectable=0;fillColor=none;top=0;left=0;bottom=0;right=0;overflow=hidden;" parent="110" vertex="1">
                    <mxGeometry width="100" height="38" as="geometry">
                        <mxRectangle width="100" height="38" as="alternateBounds"/>
                    </mxGeometry>
                </mxCell>
                <mxCell id="112" value="user_pass" style="shape=partialRectangle;html=1;whiteSpace=wrap;connectable=0;fillColor=none;top=0;left=0;bottom=0;right=0;overflow=hidden;" parent="110" vertex="1">
                    <mxGeometry x="100" width="100" height="38" as="geometry">
                        <mxRectangle width="100" height="38" as="alternateBounds"/>
                    </mxGeometry>
                </mxCell>
                <mxCell id="113" value="VARCHAR(50)" style="shape=partialRectangle;html=1;whiteSpace=wrap;connectable=0;fillColor=none;top=0;left=0;bottom=0;right=0;overflow=hidden;" parent="110" vertex="1">
                    <mxGeometry x="200" width="100" height="38" as="geometry">
                        <mxRectangle width="100" height="38" as="alternateBounds"/>
                    </mxGeometry>
                </mxCell>
                <mxCell id="114" value="" style="shape=tableRow;horizontal=0;startSize=0;swimlaneHead=0;swimlaneBody=0;top=0;left=0;bottom=0;right=0;collapsible=0;dropTarget=0;fillColor=none;points=[[0,0.5],[1,0.5]];portConstraint=eastwest;" parent="101" vertex="1">
                    <mxGeometry y="154" width="300" height="38" as="geometry"/>
                </mxCell>
                <mxCell id="115" value="3" style="shape=partialRectangle;html=1;whiteSpace=wrap;connectable=0;fillColor=none;top=0;left=0;bottom=0;right=0;overflow=hidden;" parent="114" vertex="1">
                    <mxGeometry width="100" height="38" as="geometry">
                        <mxRectangle width="100" height="38" as="alternateBounds"/>
                    </mxGeometry>
                </mxCell>
                <mxCell id="116" value="user_first_name" style="shape=partialRectangle;html=1;whiteSpace=wrap;connectable=0;fillColor=none;top=0;left=0;bottom=0;right=0;overflow=hidden;" parent="114" vertex="1">
                    <mxGeometry x="100" width="100" height="38" as="geometry">
                        <mxRectangle width="100" height="38" as="alternateBounds"/>
                    </mxGeometry>
                </mxCell>
                <mxCell id="117" value="VARCHAR(100)" style="shape=partialRectangle;html=1;whiteSpace=wrap;connectable=0;fillColor=none;top=0;left=0;bottom=0;right=0;overflow=hidden;" parent="114" vertex="1">
                    <mxGeometry x="200" width="100" height="38" as="geometry">
                        <mxRectangle width="100" height="38" as="alternateBounds"/>
                    </mxGeometry>
                </mxCell>
                <mxCell id="118" value="" style="shape=tableRow;horizontal=0;startSize=0;swimlaneHead=0;swimlaneBody=0;top=0;left=0;bottom=0;right=0;collapsible=0;dropTarget=0;fillColor=none;points=[[0,0.5],[1,0.5]];portConstraint=eastwest;" parent="101" vertex="1">
                    <mxGeometry y="192" width="300" height="38" as="geometry"/>
                </mxCell>
                <mxCell id="119" value="4" style="shape=partialRectangle;html=1;whiteSpace=wrap;connectable=0;fillColor=none;top=0;left=0;bottom=0;right=0;overflow=hidden;" parent="118" vertex="1">
                    <mxGeometry width="100" height="38" as="geometry">
                        <mxRectangle width="100" height="38" as="alternateBounds"/>
                    </mxGeometry>
                </mxCell>
                <mxCell id="120" value="user_last_name" style="shape=partialRectangle;html=1;whiteSpace=wrap;connectable=0;fillColor=none;top=0;left=0;bottom=0;right=0;overflow=hidden;" parent="118" vertex="1">
                    <mxGeometry x="100" width="100" height="38" as="geometry">
                        <mxRectangle width="100" height="38" as="alternateBounds"/>
                    </mxGeometry>
                </mxCell>
                <mxCell id="121" value="VARCHAR(100)" style="shape=partialRectangle;html=1;whiteSpace=wrap;connectable=0;fillColor=none;top=0;left=0;bottom=0;right=0;overflow=hidden;" parent="118" vertex="1">
                    <mxGeometry x="200" width="100" height="38" as="geometry">
                        <mxRectangle width="100" height="38" as="alternateBounds"/>
                    </mxGeometry>
                </mxCell>
                <mxCell id="122" value="" style="shape=tableRow;horizontal=0;startSize=0;swimlaneHead=0;swimlaneBody=0;top=0;left=0;bottom=0;right=0;collapsible=0;dropTarget=0;fillColor=none;points=[[0,0.5],[1,0.5]];portConstraint=eastwest;" parent="101" vertex="1">
                    <mxGeometry y="230" width="300" height="38" as="geometry"/>
                </mxCell>
                <mxCell id="123" value="5" style="shape=partialRectangle;html=1;whiteSpace=wrap;connectable=0;fillColor=none;top=0;left=0;bottom=0;right=0;overflow=hidden;" parent="122" vertex="1">
                    <mxGeometry width="100" height="38" as="geometry">
                        <mxRectangle width="100" height="38" as="alternateBounds"/>
                    </mxGeometry>
                </mxCell>
                <mxCell id="124" value="user_occupation" style="shape=partialRectangle;html=1;whiteSpace=wrap;connectable=0;fillColor=none;top=0;left=0;bottom=0;right=0;overflow=hidden;" parent="122" vertex="1">
                    <mxGeometry x="100" width="100" height="38" as="geometry">
                        <mxRectangle width="100" height="38" as="alternateBounds"/>
                    </mxGeometry>
                </mxCell>
                <mxCell id="125" value="VARCHAR(200)" style="shape=partialRectangle;html=1;whiteSpace=wrap;connectable=0;fillColor=none;top=0;left=0;bottom=0;right=0;overflow=hidden;" parent="122" vertex="1">
                    <mxGeometry x="200" width="100" height="38" as="geometry">
                        <mxRectangle width="100" height="38" as="alternateBounds"/>
                    </mxGeometry>
                </mxCell>
                <mxCell id="126" value="" style="shape=tableRow;horizontal=0;startSize=0;swimlaneHead=0;swimlaneBody=0;top=0;left=0;bottom=0;right=0;collapsible=0;dropTarget=0;fillColor=none;points=[[0,0.5],[1,0.5]];portConstraint=eastwest;" parent="101" vertex="1">
                    <mxGeometry y="268" width="300" height="38" as="geometry"/>
                </mxCell>
                <mxCell id="127" value="6" style="shape=partialRectangle;html=1;whiteSpace=wrap;connectable=0;fillColor=none;top=0;left=0;bottom=0;right=0;overflow=hidden;" parent="126" vertex="1">
                    <mxGeometry width="100" height="38" as="geometry">
                        <mxRectangle width="100" height="38" as="alternateBounds"/>
                    </mxGeometry>
                </mxCell>
                <mxCell id="128" value="user_phonenum" style="shape=partialRectangle;html=1;whiteSpace=wrap;connectable=0;fillColor=none;top=0;left=0;bottom=0;right=0;overflow=hidden;" parent="126" vertex="1">
                    <mxGeometry x="100" width="100" height="38" as="geometry">
                        <mxRectangle width="100" height="38" as="alternateBounds"/>
                    </mxGeometry>
                </mxCell>
                <mxCell id="129" value="int" style="shape=partialRectangle;html=1;whiteSpace=wrap;connectable=0;fillColor=none;top=0;left=0;bottom=0;right=0;overflow=hidden;" parent="126" vertex="1">
                    <mxGeometry x="200" width="100" height="38" as="geometry">
                        <mxRectangle width="100" height="38" as="alternateBounds"/>
                    </mxGeometry>
                </mxCell>
                <mxCell id="130" value="" style="shape=tableRow;horizontal=0;startSize=0;swimlaneHead=0;swimlaneBody=0;top=0;left=0;bottom=0;right=0;collapsible=0;dropTarget=0;fillColor=none;points=[[0,0.5],[1,0.5]];portConstraint=eastwest;" parent="101" vertex="1">
                    <mxGeometry y="306" width="300" height="38" as="geometry"/>
                </mxCell>
                <mxCell id="131" value="8" style="shape=partialRectangle;html=1;whiteSpace=wrap;connectable=0;fillColor=none;top=0;left=0;bottom=0;right=0;overflow=hidden;" parent="130" vertex="1">
                    <mxGeometry width="100" height="38" as="geometry">
                        <mxRectangle width="100" height="38" as="alternateBounds"/>
                    </mxGeometry>
                </mxCell>
                <mxCell id="132" value="user_address" style="shape=partialRectangle;html=1;whiteSpace=wrap;connectable=0;fillColor=none;top=0;left=0;bottom=0;right=0;overflow=hidden;" parent="130" vertex="1">
                    <mxGeometry x="100" width="100" height="38" as="geometry">
                        <mxRectangle width="100" height="38" as="alternateBounds"/>
                    </mxGeometry>
                </mxCell>
                <mxCell id="133" value="VARCHAR(200)" style="shape=partialRectangle;html=1;whiteSpace=wrap;connectable=0;fillColor=none;top=0;left=0;bottom=0;right=0;overflow=hidden;" parent="130" vertex="1">
                    <mxGeometry x="200" width="100" height="38" as="geometry">
                        <mxRectangle width="100" height="38" as="alternateBounds"/>
                    </mxGeometry>
                </mxCell>
                <mxCell id="170" value="Employee" style="shape=table;startSize=40;container=1;collapsible=0;childLayout=tableLayout;fontStyle=1;align=center;fillColor=none;" parent="1" vertex="1">
                    <mxGeometry x="425" y="40" width="300" height="154" as="geometry"/>
                </mxCell>
                <mxCell id="171" value="" style="shape=tableRow;horizontal=0;startSize=0;swimlaneHead=0;swimlaneBody=0;top=0;left=0;bottom=0;right=0;collapsible=0;dropTarget=0;fillColor=none;points=[[0,0.5],[1,0.5]];portConstraint=eastwest;" parent="170" vertex="1">
                    <mxGeometry y="40" width="300" height="38" as="geometry"/>
                </mxCell>
                <mxCell id="172" value="PK" style="shape=partialRectangle;html=1;whiteSpace=wrap;connectable=0;fillColor=none;top=0;left=0;bottom=0;right=0;overflow=hidden;" parent="171" vertex="1">
                    <mxGeometry width="100" height="38" as="geometry">
                        <mxRectangle width="100" height="38" as="alternateBounds"/>
                    </mxGeometry>
                </mxCell>
                <mxCell id="173" value="Attr" style="shape=partialRectangle;html=1;whiteSpace=wrap;connectable=0;fillColor=none;top=0;left=0;bottom=0;right=0;overflow=hidden;" parent="171" vertex="1">
                    <mxGeometry x="100" width="100" height="38" as="geometry">
                        <mxRectangle width="100" height="38" as="alternateBounds"/>
                    </mxGeometry>
                </mxCell>
                <mxCell id="174" value="Data Type" style="shape=partialRectangle;html=1;whiteSpace=wrap;connectable=0;fillColor=none;top=0;left=0;bottom=0;right=0;overflow=hidden;" parent="171" vertex="1">
                    <mxGeometry x="200" width="100" height="38" as="geometry">
                        <mxRectangle width="100" height="38" as="alternateBounds"/>
                    </mxGeometry>
                </mxCell>
                <mxCell id="175" value="" style="shape=tableRow;horizontal=0;startSize=0;swimlaneHead=0;swimlaneBody=0;top=0;left=0;bottom=0;right=0;collapsible=0;dropTarget=0;fillColor=none;points=[[0,0.5],[1,0.5]];portConstraint=eastwest;" parent="170" vertex="1">
                    <mxGeometry y="78" width="300" height="38" as="geometry"/>
                </mxCell>
                <mxCell id="176" value="1" style="shape=partialRectangle;html=1;whiteSpace=wrap;connectable=0;fillColor=none;top=0;left=0;bottom=0;right=0;overflow=hidden;" parent="175" vertex="1">
                    <mxGeometry width="100" height="38" as="geometry">
                        <mxRectangle width="100" height="38" as="alternateBounds"/>
                    </mxGeometry>
                </mxCell>
                <mxCell id="177" value="emp_id" style="shape=partialRectangle;html=1;whiteSpace=wrap;connectable=0;fillColor=none;top=0;left=0;bottom=0;right=0;overflow=hidden;" parent="175" vertex="1">
                    <mxGeometry x="100" width="100" height="38" as="geometry">
                        <mxRectangle width="100" height="38" as="alternateBounds"/>
                    </mxGeometry>
                </mxCell>
                <mxCell id="178" value="int" style="shape=partialRectangle;html=1;whiteSpace=wrap;connectable=0;fillColor=none;top=0;left=0;bottom=0;right=0;overflow=hidden;" parent="175" vertex="1">
                    <mxGeometry x="200" width="100" height="38" as="geometry">
                        <mxRectangle width="100" height="38" as="alternateBounds"/>
                    </mxGeometry>
                </mxCell>
                <mxCell id="179" value="" style="shape=tableRow;horizontal=0;startSize=0;swimlaneHead=0;swimlaneBody=0;top=0;left=0;bottom=0;right=0;collapsible=0;dropTarget=0;fillColor=none;points=[[0,0.5],[1,0.5]];portConstraint=eastwest;" parent="170" vertex="1">
                    <mxGeometry y="116" width="300" height="38" as="geometry"/>
                </mxCell>
                <mxCell id="180" value="2" style="shape=partialRectangle;html=1;whiteSpace=wrap;connectable=0;fillColor=none;top=0;left=0;bottom=0;right=0;overflow=hidden;" parent="179" vertex="1">
                    <mxGeometry width="100" height="38" as="geometry">
                        <mxRectangle width="100" height="38" as="alternateBounds"/>
                    </mxGeometry>
                </mxCell>
                <mxCell id="181" value="emp_pass" style="shape=partialRectangle;html=1;whiteSpace=wrap;connectable=0;fillColor=none;top=0;left=0;bottom=0;right=0;overflow=hidden;" parent="179" vertex="1">
                    <mxGeometry x="100" width="100" height="38" as="geometry">
                        <mxRectangle width="100" height="38" as="alternateBounds"/>
                    </mxGeometry>
                </mxCell>
                <mxCell id="182" value="VARCHAR(50)" style="shape=partialRectangle;html=1;whiteSpace=wrap;connectable=0;fillColor=none;top=0;left=0;bottom=0;right=0;overflow=hidden;" parent="179" vertex="1">
                    <mxGeometry x="200" width="100" height="38" as="geometry">
                        <mxRectangle width="100" height="38" as="alternateBounds"/>
                    </mxGeometry>
                </mxCell>
                <mxCell id="211" value="Pets" style="shape=table;startSize=40;container=1;collapsible=0;childLayout=tableLayout;fontStyle=1;align=center;fillColor=none;" parent="1" vertex="1">
                    <mxGeometry x="425" y="280" width="300" height="268" as="geometry"/>
                </mxCell>
                <mxCell id="212" value="" style="shape=tableRow;horizontal=0;startSize=0;swimlaneHead=0;swimlaneBody=0;top=0;left=0;bottom=0;right=0;collapsible=0;dropTarget=0;fillColor=none;points=[[0,0.5],[1,0.5]];portConstraint=eastwest;" parent="211" vertex="1">
                    <mxGeometry y="40" width="300" height="38" as="geometry"/>
                </mxCell>
                <mxCell id="213" value="PK" style="shape=partialRectangle;html=1;whiteSpace=wrap;connectable=0;fillColor=none;top=0;left=0;bottom=0;right=0;overflow=hidden;" parent="212" vertex="1">
                    <mxGeometry width="100" height="38" as="geometry">
                        <mxRectangle width="100" height="38" as="alternateBounds"/>
                    </mxGeometry>
                </mxCell>
                <mxCell id="214" value="Attr" style="shape=partialRectangle;html=1;whiteSpace=wrap;connectable=0;fillColor=none;top=0;left=0;bottom=0;right=0;overflow=hidden;" parent="212" vertex="1">
                    <mxGeometry x="100" width="100" height="38" as="geometry">
                        <mxRectangle width="100" height="38" as="alternateBounds"/>
                    </mxGeometry>
                </mxCell>
                <mxCell id="215" value="Data Type" style="shape=partialRectangle;html=1;whiteSpace=wrap;connectable=0;fillColor=none;top=0;left=0;bottom=0;right=0;overflow=hidden;" parent="212" vertex="1">
                    <mxGeometry x="200" width="100" height="38" as="geometry">
                        <mxRectangle width="100" height="38" as="alternateBounds"/>
                    </mxGeometry>
                </mxCell>
                <mxCell id="216" value="" style="shape=tableRow;horizontal=0;startSize=0;swimlaneHead=0;swimlaneBody=0;top=0;left=0;bottom=0;right=0;collapsible=0;dropTarget=0;fillColor=none;points=[[0,0.5],[1,0.5]];portConstraint=eastwest;" parent="211" vertex="1">
                    <mxGeometry y="78" width="300" height="38" as="geometry"/>
                </mxCell>
                <mxCell id="217" value="1" style="shape=partialRectangle;html=1;whiteSpace=wrap;connectable=0;fillColor=none;top=0;left=0;bottom=0;right=0;overflow=hidden;" parent="216" vertex="1">
                    <mxGeometry width="100" height="38" as="geometry">
                        <mxRectangle width="100" height="38" as="alternateBounds"/>
                    </mxGeometry>
                </mxCell>
                <mxCell id="218" value="pet_name" style="shape=partialRectangle;html=1;whiteSpace=wrap;connectable=0;fillColor=none;top=0;left=0;bottom=0;right=0;overflow=hidden;" parent="216" vertex="1">
                    <mxGeometry x="100" width="100" height="38" as="geometry">
                        <mxRectangle width="100" height="38" as="alternateBounds"/>
                    </mxGeometry>
                </mxCell>
                <mxCell id="219" value="&lt;font style=&quot;font-size: 12px;&quot;&gt;VARCHAR(100)&lt;/font&gt;" style="shape=partialRectangle;html=1;whiteSpace=wrap;connectable=0;fillColor=none;top=0;left=0;bottom=0;right=0;overflow=hidden;" parent="216" vertex="1">
                    <mxGeometry x="200" width="100" height="38" as="geometry">
                        <mxRectangle width="100" height="38" as="alternateBounds"/>
                    </mxGeometry>
                </mxCell>
                <mxCell id="220" value="" style="shape=tableRow;horizontal=0;startSize=0;swimlaneHead=0;swimlaneBody=0;top=0;left=0;bottom=0;right=0;collapsible=0;dropTarget=0;fillColor=none;points=[[0,0.5],[1,0.5]];portConstraint=eastwest;" parent="211" vertex="1">
                    <mxGeometry y="116" width="300" height="38" as="geometry"/>
                </mxCell>
                <mxCell id="221" value="2" style="shape=partialRectangle;html=1;whiteSpace=wrap;connectable=0;fillColor=none;top=0;left=0;bottom=0;right=0;overflow=hidden;" parent="220" vertex="1">
                    <mxGeometry width="100" height="38" as="geometry">
                        <mxRectangle width="100" height="38" as="alternateBounds"/>
                    </mxGeometry>
                </mxCell>
                <mxCell id="222" value="pet_breed" style="shape=partialRectangle;html=1;whiteSpace=wrap;connectable=0;fillColor=none;top=0;left=0;bottom=0;right=0;overflow=hidden;" parent="220" vertex="1">
                    <mxGeometry x="100" width="100" height="38" as="geometry">
                        <mxRectangle width="100" height="38" as="alternateBounds"/>
                    </mxGeometry>
                </mxCell>
                <mxCell id="223" value="VARCHAR(100)" style="shape=partialRectangle;html=1;whiteSpace=wrap;connectable=0;fillColor=none;top=0;left=0;bottom=0;right=0;overflow=hidden;" parent="220" vertex="1">
                    <mxGeometry x="200" width="100" height="38" as="geometry">
                        <mxRectangle width="100" height="38" as="alternateBounds"/>
                    </mxGeometry>
                </mxCell>
                <mxCell id="224" value="" style="shape=tableRow;horizontal=0;startSize=0;swimlaneHead=0;swimlaneBody=0;top=0;left=0;bottom=0;right=0;collapsible=0;dropTarget=0;fillColor=none;points=[[0,0.5],[1,0.5]];portConstraint=eastwest;" parent="211" vertex="1">
                    <mxGeometry y="154" width="300" height="38" as="geometry"/>
                </mxCell>
                <mxCell id="225" value="3" style="shape=partialRectangle;html=1;whiteSpace=wrap;connectable=0;fillColor=none;top=0;left=0;bottom=0;right=0;overflow=hidden;" parent="224" vertex="1">
                    <mxGeometry width="100" height="38" as="geometry">
                        <mxRectangle width="100" height="38" as="alternateBounds"/>
                    </mxGeometry>
                </mxCell>
                <mxCell id="226" value="pet_health" style="shape=partialRectangle;html=1;whiteSpace=wrap;connectable=0;fillColor=none;top=0;left=0;bottom=0;right=0;overflow=hidden;" parent="224" vertex="1">
                    <mxGeometry x="100" width="100" height="38" as="geometry">
                        <mxRectangle width="100" height="38" as="alternateBounds"/>
                    </mxGeometry>
                </mxCell>
                <mxCell id="227" value="VARCHAR(100)" style="shape=partialRectangle;html=1;whiteSpace=wrap;connectable=0;fillColor=none;top=0;left=0;bottom=0;right=0;overflow=hidden;" parent="224" vertex="1">
                    <mxGeometry x="200" width="100" height="38" as="geometry">
                        <mxRectangle width="100" height="38" as="alternateBounds"/>
                    </mxGeometry>
                </mxCell>
                <mxCell id="228" value="" style="shape=tableRow;horizontal=0;startSize=0;swimlaneHead=0;swimlaneBody=0;top=0;left=0;bottom=0;right=0;collapsible=0;dropTarget=0;fillColor=none;points=[[0,0.5],[1,0.5]];portConstraint=eastwest;" parent="211" vertex="1">
                    <mxGeometry y="192" width="300" height="38" as="geometry"/>
                </mxCell>
                <mxCell id="229" value="4" style="shape=partialRectangle;html=1;whiteSpace=wrap;connectable=0;fillColor=none;top=0;left=0;bottom=0;right=0;overflow=hidden;" parent="228" vertex="1">
                    <mxGeometry width="100" height="38" as="geometry">
                        <mxRectangle width="100" height="38" as="alternateBounds"/>
                    </mxGeometry>
                </mxCell>
                <mxCell id="230" value="pet_location" style="shape=partialRectangle;html=1;whiteSpace=wrap;connectable=0;fillColor=none;top=0;left=0;bottom=0;right=0;overflow=hidden;" parent="228" vertex="1">
                    <mxGeometry x="100" width="100" height="38" as="geometry">
                        <mxRectangle width="100" height="38" as="alternateBounds"/>
                    </mxGeometry>
                </mxCell>
                <mxCell id="231" value="VARCHAR(100)" style="shape=partialRectangle;html=1;whiteSpace=wrap;connectable=0;fillColor=none;top=0;left=0;bottom=0;right=0;overflow=hidden;" parent="228" vertex="1">
                    <mxGeometry x="200" width="100" height="38" as="geometry">
                        <mxRectangle width="100" height="38" as="alternateBounds"/>
                    </mxGeometry>
                </mxCell>
                <mxCell id="232" value="" style="shape=tableRow;horizontal=0;startSize=0;swimlaneHead=0;swimlaneBody=0;top=0;left=0;bottom=0;right=0;collapsible=0;dropTarget=0;fillColor=none;points=[[0,0.5],[1,0.5]];portConstraint=eastwest;" parent="211" vertex="1">
                    <mxGeometry y="230" width="300" height="38" as="geometry"/>
                </mxCell>
                <mxCell id="233" value="FK - 8" style="shape=partialRectangle;html=1;whiteSpace=wrap;connectable=0;fillColor=none;top=0;left=0;bottom=0;right=0;overflow=hidden;" parent="232" vertex="1">
                    <mxGeometry width="100" height="38" as="geometry">
                        <mxRectangle width="100" height="38" as="alternateBounds"/>
                    </mxGeometry>
                </mxCell>
                <mxCell id="234" value="user_email" style="shape=partialRectangle;html=1;whiteSpace=wrap;connectable=0;fillColor=none;top=0;left=0;bottom=0;right=0;overflow=hidden;" parent="232" vertex="1">
                    <mxGeometry x="100" width="100" height="38" as="geometry">
                        <mxRectangle width="100" height="38" as="alternateBounds"/>
                    </mxGeometry>
                </mxCell>
                <mxCell id="235" value="VARCHAR(100)" style="shape=partialRectangle;html=1;whiteSpace=wrap;connectable=0;fillColor=none;top=0;left=0;bottom=0;right=0;overflow=hidden;" parent="232" vertex="1">
                    <mxGeometry x="200" width="100" height="38" as="geometry">
                        <mxRectangle width="100" height="38" as="alternateBounds"/>
                    </mxGeometry>
                </mxCell>
                <mxCell id="248" style="edgeStyle=none;html=1;exitX=1;exitY=0.5;exitDx=0;exitDy=0;entryX=0;entryY=0.5;entryDx=0;entryDy=0;" edge="1" parent="1" source="106" target="232">
                    <mxGeometry relative="1" as="geometry"/>
                </mxCell>
            </root>
        </mxGraphModel>
    </diagram>
</mxfile>